<?xml version="1.0" encoding="UTF-8"?>
<svg id="Layer_1" data-name="Layer 1" xmlns="http://www.w3.org/2000/svg" viewBox="0 0 859.94 290.99">
  <g>
    <path d="M.52,138.8V1.88h47.96c16.61,0,29.21,3.18,37.8,9.54,8.59,6.36,12.88,15.69,12.88,27.98,0,6.71-1.73,12.62-5.17,17.73-3.45,5.11-8.24,8.86-14.39,11.24,7.02,1.76,12.55,5.3,16.6,10.63,4.04,5.33,6.07,11.85,6.07,19.56,0,13.17-4.2,23.13-12.6,29.9-8.4,6.77-20.38,10.22-35.92,10.34H.52ZM28.73,59.24h20.88c14.23-.25,21.35-5.92,21.35-17.02,0-6.21-1.8-10.67-5.41-13.4-3.61-2.73-9.29-4.09-17.07-4.09h-19.75v34.51ZM28.73,79.18v36.96h24.17c6.64,0,11.83-1.58,15.56-4.75,3.73-3.17,5.6-7.54,5.6-13.12,0-12.54-6.49-18.9-19.47-19.09h-25.86Z" stroke-width="0"/>
    <path d="M170.46,88.68h-22.48v50.12h-28.21V1.88h50.87c16.17,0,28.65,3.61,37.43,10.81,8.78,7.21,13.17,17.4,13.17,30.56,0,9.34-2.02,17.13-6.07,23.37-4.04,6.24-10.17,11.21-18.38,14.9l29.62,55.95v1.32h-30.28l-25.67-50.12ZM147.98,65.83h22.76c7.08,0,12.57-1.8,16.46-5.41,3.89-3.6,5.83-8.57,5.83-14.91s-1.83-11.53-5.5-15.23c-3.67-3.7-9.29-5.55-16.88-5.55h-22.66v41.09Z" stroke-width="0"/>
    <path d="M316.32,110.59h-49.46l-9.4,28.21h-30L278.42,1.88h26.14l51.25,136.92h-30l-9.5-28.21ZM274.47,87.74h34.23l-17.21-51.25-17.02,51.25Z" stroke-width="0"/>
    <path d="M476.29,138.8h-28.21l-54.92-90.09v90.09h-28.21V1.88h28.21l55.01,90.28V1.88h28.12v136.92Z" stroke-width="0"/>
    <path d="M497.26,138.8V1.88h42.13c12.04,0,22.8,2.71,32.3,8.13,9.5,5.42,16.91,13.13,22.24,23.13,5.33,10,7.99,21.36,7.99,34.09v6.3c0,12.73-2.62,24.04-7.85,33.95-5.24,9.91-12.62,17.59-22.15,23.04-9.53,5.45-20.28,8.21-32.25,8.28h-42.41ZM525.48,24.73v91.41h13.64c11.03,0,19.47-3.6,25.3-10.81,5.83-7.21,8.81-17.52,8.93-30.94v-7.24c0-13.92-2.88-24.46-8.65-31.64-5.77-7.18-14.2-10.77-25.3-10.77h-13.92Z" stroke-width="0"/>
    <path d="M731.24,73.44c0,13.48-2.38,25.3-7.15,35.45-4.76,10.16-11.58,17.99-20.45,23.51-8.87,5.52-19.04,8.28-30.52,8.28s-21.47-2.73-30.37-8.18c-8.9-5.45-15.8-13.24-20.69-23.37-4.89-10.12-7.37-21.77-7.43-34.94v-6.77c0-13.48,2.43-25.34,7.29-35.59,4.86-10.25,11.72-18.12,20.59-23.6,8.87-5.48,19.01-8.23,30.42-8.23s21.55,2.74,30.42,8.23c8.87,5.49,15.74,13.35,20.59,23.6,4.86,10.25,7.29,22.08,7.29,35.5v6.11ZM702.65,67.24c0-14.36-2.57-25.26-7.71-32.73-5.14-7.46-12.48-11.19-22.01-11.19s-16.77,3.68-21.91,11.05c-5.14,7.37-7.74,18.17-7.81,32.4v6.68c0,13.98,2.57,24.83,7.71,32.54,5.14,7.71,12.54,11.57,22.19,11.57s16.74-3.71,21.82-11.14c5.08-7.43,7.65-18.26,7.71-32.49v-6.68Z" stroke-width="0"/>
    <path d="M859.42,138.8h-28.21l-54.92-90.09v90.09h-28.21V1.88h28.21l55.01,90.28V1.88h28.12v136.92Z" stroke-width="0"/>
  </g>
  <g>
    <path d="M111.44,289.11h-28.21v-58.68H28.21v58.68H0v-136.92h28.21v55.48h55.01v-55.48h28.21v136.92Z" stroke-width="0"/>
    <path d="M222.88,229.77h-54.17v36.67h63.57v22.66h-91.78v-136.92h91.59v22.85h-63.38v32.63h54.17v22.1Z" stroke-width="0"/>
    <path d="M303.95,238.98h-22.48v50.12h-28.21v-136.92h50.87c16.17,0,28.65,3.61,37.43,10.81,8.78,7.21,13.17,17.4,13.17,30.56,0,9.34-2.02,17.13-6.07,23.37-4.04,6.24-10.17,11.21-18.38,14.91l29.62,55.95v1.32h-30.28l-25.67-50.12ZM281.48,216.13h22.76c7.08,0,12.57-1.8,16.46-5.41,3.89-3.6,5.83-8.57,5.83-14.91s-1.83-11.53-5.5-15.23c-3.67-3.7-9.29-5.55-16.88-5.55h-22.66v41.09Z" stroke-width="0"/>
    <path d="M462.98,233.15h-54.17v55.95h-28.21v-136.92h89.15v22.85h-60.94v35.36h54.17v22.76Z" stroke-width="0"/>
    <path d="M603.01,223.75c0,13.48-2.38,25.3-7.15,35.45-4.76,10.16-11.58,17.99-20.45,23.51-8.87,5.52-19.04,8.28-30.52,8.28s-21.47-2.73-30.37-8.18c-8.9-5.45-15.8-13.24-20.69-23.37-4.89-10.12-7.37-21.77-7.43-34.94v-6.77c0-13.48,2.43-25.34,7.29-35.59,4.86-10.25,11.72-18.12,20.59-23.6,8.87-5.49,19.01-8.23,30.42-8.23s21.55,2.74,30.42,8.23c8.87,5.49,15.74,13.35,20.59,23.6,4.86,10.25,7.29,22.08,7.29,35.5v6.11ZM574.42,217.54c0-14.36-2.57-25.26-7.71-32.72-5.14-7.46-12.48-11.19-22.01-11.19s-16.77,3.68-21.91,11.05c-5.14,7.37-7.74,18.17-7.81,32.4v6.68c0,13.98,2.57,24.83,7.71,32.54s12.54,11.57,22.19,11.57,16.74-3.71,21.82-11.14c5.08-7.43,7.65-18.26,7.71-32.49v-6.68Z" stroke-width="0"/>
    <path d="M678.63,238.98h-22.48v50.12h-28.21v-136.92h50.88c16.17,0,28.65,3.61,37.43,10.81,8.78,7.21,13.17,17.4,13.17,30.56,0,9.34-2.02,17.13-6.07,23.37-4.04,6.24-10.17,11.21-18.38,14.91l29.62,55.95v1.32h-30.28l-25.67-50.12ZM656.15,216.13h22.76c7.08,0,12.57-1.8,16.46-5.41,3.89-3.6,5.83-8.57,5.83-14.91s-1.83-11.53-5.5-15.23c-3.67-3.7-9.29-5.55-16.88-5.55h-22.66v41.09Z" stroke-width="0"/>
    <path d="M755.28,289.11v-136.92h42.13c12.04,0,22.8,2.71,32.3,8.13,9.5,5.42,16.91,13.13,22.24,23.13,5.33,10,7.99,21.36,7.99,34.09v6.3c0,12.73-2.62,24.04-7.85,33.95-5.24,9.91-12.62,17.58-22.15,23.04-9.53,5.45-20.28,8.21-32.25,8.28h-42.41ZM783.49,175.04v91.41h13.64c11.03,0,19.47-3.6,25.3-10.81,5.83-7.21,8.81-17.52,8.93-30.94v-7.24c0-13.92-2.88-24.46-8.65-31.64-5.77-7.18-14.2-10.77-25.3-10.77h-13.92Z" stroke-width="0"/>
  </g>
</svg>