<svg xmlns="http://www.w3.org/2000/svg" width="165.652" height="141.311" viewBox="0 0 165.652 141.311"><g transform="translate(-1.09 -3.561)" fill="none"><path d="M132.112,144.852l-100.324-3.5a31.812,31.812,0,0,1-7.906-62.3,22.736,22.736,0,0,1-.466-2.776A22.5,22.5,0,0,1,43.44,51.546L54.317,50.4,41.962,48.224A22.5,22.5,0,0,1,49.775,3.907l52.2,9.2a22.52,22.52,0,0,1,17,30.5L141.889,41.2a22.5,22.5,0,0,1,7.273,44.334,31.812,31.812,0,0,1-15.919,59.34C132.867,144.872,132.491,144.866,132.112,144.852Z" stroke="none"/><path d="M 133.2428131103516 137.8721160888672 L 133.2427825927734 137.8721160888672 C 146.6643218994141 137.8710632324219 157.5454559326172 127.3545913696289 158.0147552490234 113.9306716918945 C 158.3349609375 104.7586975097656 153.5969543457031 96.19725799560547 145.6497039794922 91.58736419677734 L 130.1499786376953 82.59658813476562 L 147.6397399902344 78.69983673095703 C 155.3132934570312 76.99014282226562 160.4788665771484 69.79145050048828 159.6553497314453 61.95500564575195 C 158.7666625976562 53.49893951416016 151.2447204589844 47.25336837768555 142.6203155517578 48.16006088256836 L 108.1826782226562 51.77961730957031 L 112.4618148803711 41.02064514160156 C 112.8515090942383 40.04086685180664 113.14306640625 39.01122665405273 113.3282852172852 37.96092224121094 C 114.8120422363281 29.54375648498535 109.1717300415039 21.48828315734863 100.75537109375 20.00397872924805 L 48.56017684936523 10.8005895614624 C 47.64717864990234 10.63964462280273 46.73884582519531 10.56145095825195 45.84278869628906 10.56145095825195 C 38.32220458984375 10.56145095825195 31.91342735290527 15.9498119354248 30.60414886474609 23.37370109558105 C 29.11984443664551 31.79045104980469 34.76017761230469 39.84569931030273 43.17715072631836 41.33014678955078 L 55.53292846679688 43.50881195068359 L 55.04906463623047 57.36414337158203 L 44.17184448242188 58.50736618041992 C 40.05431747436523 58.9400634765625 36.35178756713867 60.95034027099609 33.74628829956055 64.16789245605469 C 31.14084434509277 67.38542175292969 29.94423294067383 71.42500305175781 30.37695503234863 75.54241943359375 C 30.44576072692871 76.19722747802734 30.55417823791504 76.83883666992188 30.69959449768066 77.46395111083984 L 32.19520568847656 83.89308929443359 L 25.86484336853027 85.76319885253906 C 15.6160945892334 88.79084014892578 8.47914981842041 98.00661468505859 8.10545539855957 108.6951141357422 C 7.874260902404785 115.3175888061523 10.23576068878174 121.6337280273438 14.75492763519287 126.4800338745117 C 19.27406692504883 131.3263092041016 25.40995597839355 134.1225891113281 32.03226089477539 134.353759765625 L 132.3562622070312 137.8565826416016 L 133.2428131103516 137.8721160888672 M 133.2433471679688 144.8721160888672 C 132.8667907714844 144.8721466064453 132.4912261962891 144.8655548095703 132.1118927001953 144.8523101806641 L 31.78801155090332 141.3495025634766 C 14.23170566558838 140.7366180419922 0.4968164563179016 126.0072021484375 1.109705328941345 108.4508972167969 C 1.600427627563477 94.41536712646484 11.11476135253906 82.82156372070312 23.88164901733398 79.05000305175781 C 23.67156600952148 78.14691925048828 23.51470565795898 77.22003173828125 23.4152889251709 76.27408599853516 C 22.1165943145752 63.91620254516602 31.08151054382324 52.84439468383789 43.44028854370117 51.54570007324219 L 54.3173713684082 50.4024772644043 L 41.96159362792969 48.22381210327148 C 29.72428894042969 46.06558990478516 21.55231666564941 34.39620208740234 23.71051025390625 22.15800666809082 C 25.86870384216309 9.920703887939453 37.5380973815918 1.749610662460327 49.77539825439453 3.906895160675049 L 101.9709014892578 13.11031150817871 C 114.2082061767578 15.26850605010986 122.3793182373047 26.93789482116699 120.2220077514648 39.17611694335938 C 119.9493408203125 40.72220230102539 119.5245132446289 42.2039794921875 118.9662322998047 43.60764694213867 L 141.8886260986328 41.19839477539062 C 154.2462921142578 39.89967346191406 165.3182830810547 48.86549758911133 166.6170043945312 61.22339630126953 C 167.8238372802734 72.70711517333984 160.1684265136719 83.08006286621094 149.1620178222656 85.53231048583984 C 158.9899597167969 91.23311614990234 165.4346008300781 102.026725769043 165.0105133056641 114.1748962402344 C 164.4099884033203 131.3518676757812 150.2956237792969 144.8707885742188 133.2433471679688 144.8721160888672 Z" stroke="none" fill="#000"/></g></svg>