<svg xmlns="http://www.w3.org/2000/svg" width="270.973" height="177.458" viewBox="0 0 270.973 177.458"><g transform="translate(-752.212 -837.047)"><g transform="matrix(0.966, 0.259, -0.259, 0.966, 774.471, 888.988)" fill="none"><path d="M121,86H43A43.012,43.012,0,0,1,26.263,3.379,42.731,42.731,0,0,1,43,0h78a43.012,43.012,0,0,1,16.738,82.621A42.731,42.731,0,0,1,121,86ZM41,26a17,17,0,0,0,0,34h82a17,17,0,0,0,0-34Z" stroke="none"/><path d="M 120.9995956420898 79.00039672851562 C 125.862678527832 79.00039672851562 130.5765686035156 78.04953765869141 135.0103454589844 76.17420196533203 C 139.2964324951172 74.36134338378906 143.1471557617188 71.76461791992188 146.4555969238281 68.45611572265625 C 149.7640380859375 65.147705078125 152.3607635498047 61.29698181152344 154.1735992431641 57.01086807250977 C 156.0489501953125 52.57717514038086 156.9998168945312 47.86328506469727 156.9998168945312 43.00020217895508 C 156.9998168945312 38.13714599609375 156.0489349365234 33.42325592041016 154.1735992431641 28.98945236206055 C 152.3607635498047 24.70342445373535 149.7640380859375 20.85270309448242 146.4555358886719 17.54422950744629 C 143.1470947265625 14.23575782775879 139.2963714599609 11.63903522491455 135.0103454589844 9.826202392578125 C 130.5765686035156 7.950869083404541 125.862678527832 7.000007629394531 120.9995956420898 7.000007629394531 L 43.00020599365234 7.000007629394531 C 38.13712310791016 7.000007629394531 33.42323303222656 7.950869083404541 28.98951148986816 9.826202392578125 C 24.70342826843262 11.63906288146973 20.85270690917969 14.23578548431396 17.54423332214355 17.54428482055664 C 14.23578929901123 20.85270309448242 11.63906764984131 24.70342445373535 9.826206207275391 28.98947906494141 C 7.950872898101807 33.42325592041016 7.000011920928955 38.13714599609375 7.000011920928955 43.00020217895508 C 7.000011920928955 47.86328506469727 7.950872898101807 52.57717514038086 9.826206207275391 57.01089477539062 C 11.63906764984131 61.29698181152344 14.23578929901123 65.147705078125 17.54429054260254 68.4561767578125 C 20.85270690917969 71.76461791992188 24.70342826843262 74.36134338378906 28.9894847869873 76.17420196533203 C 33.42323303222656 78.04953765869141 38.13712310791016 79.00039672851562 43.00020599365234 79.00039672851562 L 120.9995956420898 79.00039672851562 M 41.00040054321289 19.00009155273438 L 123.0002899169922 19.00009155273438 C 129.4108428955078 19.00009155273438 135.4377899169922 21.49653625488281 139.9709625244141 26.02961921691895 C 144.5039520263672 30.56267356872559 147.0003967285156 36.58959197998047 147.0003967285156 43.00020217895508 C 147.0003967285156 49.41081237792969 144.5039520263672 55.43772888183594 139.9708709716797 59.97084045410156 C 135.4377899169922 64.50386810302734 129.4108428955078 67.00031280517578 123.0002899169922 67.00031280517578 L 41.00040054321289 67.00031280517578 C 34.58981704711914 67.00031280517578 28.56287384033203 64.50386810302734 24.02976226806641 59.97078704833984 C 19.49673461914062 55.43772888183594 17.00028991699219 49.41078567504883 17.00028991699219 43.00020217895508 C 17.00028991699219 36.58961868286133 19.49673461914062 30.56267356872559 24.02981758117676 26.02956390380859 C 28.56287384033203 21.49653625488281 34.58981704711914 19.00009155273438 41.00040054321289 19.00009155273438 M 120.9995956420898 86.00039672851562 L 43.00020599365234 86.00039672851562 C 37.19523239135742 86.00039672851562 31.56387329101562 84.86347961425781 26.26262283325195 82.62123107910156 C 21.14217948913574 80.45545196533203 16.5435676574707 77.35498046875 12.59451198577881 73.40589904785156 C 8.645428657531738 69.45684051513672 5.544956207275391 64.85823059082031 3.379178524017334 59.73778533935547 C 1.136928558349609 54.4365348815918 1.192898253066232e-05 48.80517578125 1.192898253066232e-05 43.00020217895508 C 1.192898253066232e-05 37.19522857666016 1.136928558349609 31.56389617919922 3.379178524017334 26.26261901855469 C 5.544956207275391 21.14217376708984 8.645428657531738 16.54356384277344 12.59451198577881 12.59450817108154 C 16.5435676574707 8.645424842834473 21.14217948913574 5.544952392578125 26.26262283325195 3.379174470901489 C 31.56387329101562 1.136924386024475 37.19523239135742 7.734510290902108e-06 43.00020599365234 7.734510290902108e-06 L 120.9995956420898 7.734510290902108e-06 C 126.8045654296875 7.734510290902108e-06 132.4359283447266 1.136924386024475 137.7372131347656 3.379174470901489 C 142.8576812744141 5.544952392578125 147.4562835693359 8.645452499389648 151.4053192138672 12.59450817108154 C 155.3544311523438 16.5435905456543 158.4548950195312 21.1422290802002 160.6206207275391 26.26261901855469 C 162.8628997802734 31.56389617919922 163.9998168945312 37.19522857666016 163.9998168945312 43.00020217895508 C 163.9998168945312 48.80517578125 162.8628997802734 54.4365348815918 160.6206207275391 59.73778533935547 C 158.4548950195312 64.85817718505859 155.3544311523438 69.45680999755859 151.4053192138672 73.40589904785156 C 147.4562835693359 77.35498046875 142.8576812744141 80.45545196533203 137.7372131347656 82.62123107910156 C 132.4359283447266 84.86347961425781 126.8045654296875 86.00039672851562 120.9995956420898 86.00039672851562 Z M 41.00040054321289 26.00009155273438 C 36.45956802368164 26.00009155273438 32.19045639038086 27.76845169067383 28.97953987121582 30.97934150695801 C 25.76865005493164 34.19025802612305 24.00028991699219 38.45936965942383 24.00028991699219 43.00020217895508 C 24.00028991699219 47.54103469848633 25.76865005493164 51.81014633178711 28.97953987121582 55.02106475830078 C 32.19045639038086 58.23195266723633 36.45956802368164 60.00031280517578 41.00040054321289 60.00031280517578 L 123.0002899169922 60.00031280517578 C 127.5411529541016 60.00031280517578 131.8102416992188 58.23195266723633 135.0211791992188 55.02106475830078 C 138.2320709228516 51.81014633178711 140.0003967285156 47.54103469848633 140.0003967285156 43.00020217895508 C 140.0003967285156 38.45936965942383 138.2320709228516 34.19025802612305 135.0211791992188 30.97934150695801 C 131.8102416992188 27.76845169067383 127.5411529541016 26.00009155273438 123.0002899169922 26.00009155273438 L 41.00040054321289 26.00009155273438 Z" stroke="none" fill="#000"/></g><g transform="translate(839.132 928.754) rotate(-34)" fill="none"><path d="M121,86H43A43.012,43.012,0,0,1,26.263,3.379,42.731,42.731,0,0,1,43,0h78a43.012,43.012,0,0,1,16.738,82.621A42.731,42.731,0,0,1,121,86ZM41,26a17,17,0,0,0,0,34h82a17,17,0,0,0,0-34Z" stroke="none"/><path d="M 120.9995956420898 79.00039672851562 C 125.862678527832 79.00039672851562 130.5765686035156 78.04953765869141 135.0103454589844 76.17420196533203 C 139.2964324951172 74.36134338378906 143.1471557617188 71.76461791992188 146.4555969238281 68.45611572265625 C 149.7640380859375 65.147705078125 152.3607635498047 61.29698181152344 154.1735992431641 57.01086807250977 C 156.0489501953125 52.57717514038086 156.9998168945312 47.86328506469727 156.9998168945312 43.00020217895508 C 156.9998168945312 38.13714599609375 156.0489349365234 33.42325592041016 154.1735992431641 28.98945236206055 C 152.3607635498047 24.70342445373535 149.7640380859375 20.85270309448242 146.4555358886719 17.54422950744629 C 143.1470947265625 14.23575782775879 139.2963714599609 11.63903522491455 135.0103454589844 9.826202392578125 C 130.5765686035156 7.950869083404541 125.862678527832 7.000007629394531 120.9995956420898 7.000007629394531 L 43.00020599365234 7.000007629394531 C 38.13712310791016 7.000007629394531 33.42323303222656 7.950869083404541 28.98951148986816 9.826202392578125 C 24.70342826843262 11.63906288146973 20.85270690917969 14.23578548431396 17.54423332214355 17.54428482055664 C 14.23578929901123 20.85270309448242 11.63906764984131 24.70342445373535 9.826206207275391 28.98947906494141 C 7.950872898101807 33.42325592041016 7.000011920928955 38.13714599609375 7.000011920928955 43.00020217895508 C 7.000011920928955 47.86328506469727 7.950872898101807 52.57717514038086 9.826206207275391 57.01089477539062 C 11.63906764984131 61.29698181152344 14.23578929901123 65.147705078125 17.54429054260254 68.4561767578125 C 20.85270690917969 71.76461791992188 24.70342826843262 74.36134338378906 28.9894847869873 76.17420196533203 C 33.42323303222656 78.04953765869141 38.13712310791016 79.00039672851562 43.00020599365234 79.00039672851562 L 120.9995956420898 79.00039672851562 M 41.00040054321289 19.00009155273438 L 123.0002899169922 19.00009155273438 C 129.4108428955078 19.00009155273438 135.4377899169922 21.49653625488281 139.9709625244141 26.02961921691895 C 144.5039520263672 30.56267356872559 147.0003967285156 36.58959197998047 147.0003967285156 43.00020217895508 C 147.0003967285156 49.41081237792969 144.5039520263672 55.43772888183594 139.9708709716797 59.97084045410156 C 135.4377899169922 64.50386810302734 129.4108428955078 67.00031280517578 123.0002899169922 67.00031280517578 L 41.00040054321289 67.00031280517578 C 34.58981704711914 67.00031280517578 28.56287384033203 64.50386810302734 24.02976226806641 59.97078704833984 C 19.49673461914062 55.43772888183594 17.00028991699219 49.41078567504883 17.00028991699219 43.00020217895508 C 17.00028991699219 36.58961868286133 19.49673461914062 30.56267356872559 24.02981758117676 26.02956390380859 C 28.56287384033203 21.49653625488281 34.58981704711914 19.00009155273438 41.00040054321289 19.00009155273438 M 120.9995956420898 86.00039672851562 L 43.00020599365234 86.00039672851562 C 37.19523239135742 86.00039672851562 31.56387329101562 84.86347961425781 26.26262283325195 82.62123107910156 C 21.14217948913574 80.45545196533203 16.5435676574707 77.35498046875 12.59451198577881 73.40589904785156 C 8.645428657531738 69.45684051513672 5.544956207275391 64.85823059082031 3.379178524017334 59.73778533935547 C 1.136928558349609 54.4365348815918 1.192898253066232e-05 48.80517578125 1.192898253066232e-05 43.00020217895508 C 1.192898253066232e-05 37.19522857666016 1.136928558349609 31.56389617919922 3.379178524017334 26.26261901855469 C 5.544956207275391 21.14217376708984 8.645428657531738 16.54356384277344 12.59451198577881 12.59450817108154 C 16.5435676574707 8.645424842834473 21.14217948913574 5.544952392578125 26.26262283325195 3.379174470901489 C 31.56387329101562 1.136924386024475 37.19523239135742 7.734510290902108e-06 43.00020599365234 7.734510290902108e-06 L 120.9995956420898 7.734510290902108e-06 C 126.8045654296875 7.734510290902108e-06 132.4359283447266 1.136924386024475 137.7372131347656 3.379174470901489 C 142.8576812744141 5.544952392578125 147.4562835693359 8.645452499389648 151.4053192138672 12.59450817108154 C 155.3544311523438 16.5435905456543 158.4548950195312 21.1422290802002 160.6206207275391 26.26261901855469 C 162.8628997802734 31.56389617919922 163.9998168945312 37.19522857666016 163.9998168945312 43.00020217895508 C 163.9998168945312 48.80517578125 162.8628997802734 54.4365348815918 160.6206207275391 59.73778533935547 C 158.4548950195312 64.85817718505859 155.3544311523438 69.45680999755859 151.4053192138672 73.40589904785156 C 147.4562835693359 77.35498046875 142.8576812744141 80.45545196533203 137.7372131347656 82.62123107910156 C 132.4359283447266 84.86347961425781 126.8045654296875 86.00039672851562 120.9995956420898 86.00039672851562 Z M 41.00040054321289 26.00009155273438 C 36.45956802368164 26.00009155273438 32.19045639038086 27.76845169067383 28.97953987121582 30.97934150695801 C 25.76865005493164 34.19025802612305 24.00028991699219 38.45936965942383 24.00028991699219 43.00020217895508 C 24.00028991699219 47.54103469848633 25.76865005493164 51.81014633178711 28.97953987121582 55.02106475830078 C 32.19045639038086 58.23195266723633 36.45956802368164 60.00031280517578 41.00040054321289 60.00031280517578 L 123.0002899169922 60.00031280517578 C 127.5411529541016 60.00031280517578 131.8102416992188 58.23195266723633 135.0211791992188 55.02106475830078 C 138.2320709228516 51.81014633178711 140.0003967285156 47.54103469848633 140.0003967285156 43.00020217895508 C 140.0003967285156 38.45936965942383 138.2320709228516 34.19025802612305 135.0211791992188 30.97934150695801 C 131.8102416992188 27.76845169067383 127.5411529541016 26.00009155273438 123.0002899169922 26.00009155273438 L 41.00040054321289 26.00009155273438 Z" stroke="none" fill="#000"/></g></g></svg>