<svg width="59.661" height="560" viewBox="0 0 59.661 560">
  <g id="Group_1" data-name="Group 1" transform="translate(-623.665 -185.231)">
    <path id="Path_1" data-name="Path 1" d="M624.165,665.506v-560" transform="translate(0 79.726)" fill="none" stroke="#000" stroke-width="1"/>
    <path id="Path_2" data-name="Path 2" d="M624.165,665.506v-560" transform="translate(58.661 79.726)" fill="none" stroke="#000" stroke-width="1"/>
    <path id="Path_13" data-name="Path 13" d="M624.165,185.231h58.9" transform="translate(0 400)" fill="none" stroke="#000" stroke-width="1"/>
    <path id="Path_8" data-name="Path 8" d="M624.165,185.231h58.9" transform="translate(0 200)" fill="none" stroke="#000" stroke-width="1"/>
    <path id="Path_4" data-name="Path 4" d="M624.165,185.231h58.9" transform="translate(0 40)" fill="none" stroke="#000" stroke-width="1"/>
    <path id="Path_14" data-name="Path 14" d="M624.165,185.231h58.9" transform="translate(0 440)" fill="none" stroke="#000" stroke-width="1"/>
    <path id="Path_9" data-name="Path 9" d="M624.165,185.231h58.9" transform="translate(0 240)" fill="none" stroke="#000" stroke-width="1"/>
    <path id="Path_5" data-name="Path 5" d="M624.165,185.231h58.9" transform="translate(0 80)" fill="none" stroke="#000" stroke-width="1"/>
    <path id="Path_15" data-name="Path 15" d="M624.165,185.231h58.9" transform="translate(0 480)" fill="none" stroke="#000" stroke-width="1"/>
    <path id="Path_10" data-name="Path 10" d="M624.165,185.231h58.9" transform="translate(0 280)" fill="none" stroke="#000" stroke-width="1"/>
    <path id="Path_6" data-name="Path 6" d="M624.165,185.231h58.9" transform="translate(0 120)" fill="none" stroke="#000" stroke-width="1"/>
    <path id="Path_16" data-name="Path 16" d="M624.165,185.231h58.9" transform="translate(0 520)" fill="none" stroke="#000" stroke-width="1"/>
    <path id="Path_11" data-name="Path 11" d="M624.165,185.231h58.9" transform="translate(0 320)" fill="none" stroke="#000" stroke-width="1"/>
    <path id="Path_7" data-name="Path 7" d="M624.165,185.231h58.9" transform="translate(0 160)" fill="none" stroke="#000" stroke-width="1"/>
    <path id="Path_12" data-name="Path 12" d="M624.165,185.231h58.9" transform="translate(0 360)" fill="none" stroke="#000" stroke-width="1"/>
  </g>
</svg>
